# This file uses centimeters as units for non-parametric coordinates.

mtllib MentalInst_Room.mtl
g default
v 50.000000 0.688946 50.000000
v 38.225925 12.463017 -0.937054
v 50.000000 100.688934 50.000000
v 38.225925 88.914871 -0.937054
v -50.000000 100.688934 50.000000
v -38.225925 88.914871 -0.937054
v -50.000000 0.688946 50.000000
v -38.225925 12.463017 -0.937054
vt 0.988513 0.228161
vt 0.988443 0.770971
vt 0.704509 0.707004
vt 0.704724 0.292036
vt 0.767955 0.991004
vt 0.225146 0.990129
vt 0.289578 0.706510
vt 0.005964 0.770109
vt 0.006406 0.227666
vt 0.289952 0.291758
vt 0.226252 0.008086
vt 0.768787 0.008439
vn -0.974310 0.000000 0.225211
vn -0.974310 0.000000 0.225211
vn -0.974310 0.000000 0.225211
vn -0.974310 0.000000 0.225211
vn -0.000000 -0.974310 0.225211
vn -0.000000 -0.974310 0.225211
vn -0.000000 -0.974310 0.225211
vn -0.000000 -0.974310 0.225211
vn 0.974310 0.000000 0.225211
vn 0.974310 0.000000 0.225211
vn 0.974310 0.000000 0.225211
vn 0.974310 0.000000 0.225211
vn -0.000000 0.974310 0.225211
vn -0.000000 0.974310 0.225211
vn -0.000000 0.974310 0.225211
vn -0.000000 0.974310 0.225211
vn -0.000000 0.000000 1.000000
vn -0.000000 0.000000 1.000000
vn -0.000000 0.000000 1.000000
vn -0.000000 0.000000 1.000000
s off
g MentalInst_Room:pCube1
usemtl MentalInst_Room:initialShadingGroup
f 1/1/1 3/2/2 4/3/3 2/4/4
f 3/5/5 5/6/6 6/7/7 4/3/8
f 5/8/9 7/9/10 8/10/11 6/7/12
f 7/11/13 1/12/14 2/4/15 8/10/16
f 2/4/17 4/3/18 6/7/19 8/10/20
